<svg width="149" height="7" viewBox="0 0 149 7" fill="none" xmlns="http://www.w3.org/2000/svg">
<path d="M0.825195 5V0.705078H1.35254V2.24609C1.59863 1.96094 1.90918 1.81836 2.28418 1.81836C2.51465 1.81836 2.71484 1.86426 2.88477 1.95605C3.05469 2.0459 3.17578 2.1709 3.24805 2.33105C3.32227 2.49121 3.35938 2.72363 3.35938 3.02832V5H2.83203V3.02832C2.83203 2.76465 2.77441 2.57324 2.65918 2.4541C2.5459 2.33301 2.38477 2.27246 2.17578 2.27246C2.01953 2.27246 1.87207 2.31348 1.7334 2.39551C1.59668 2.47559 1.49902 2.58496 1.44043 2.72363C1.38184 2.8623 1.35254 3.05371 1.35254 3.29785V5H0.825195ZM5.31641 4.52832L5.39258 4.99414C5.24414 5.02539 5.11133 5.04102 4.99414 5.04102C4.80273 5.04102 4.6543 5.01074 4.54883 4.9502C4.44336 4.88965 4.36914 4.81055 4.32617 4.71289C4.2832 4.61328 4.26172 4.40527 4.26172 4.08887V2.29883H3.875V1.88867H4.26172V1.11816L4.78613 0.801758V1.88867H5.31641V2.29883H4.78613V4.11816C4.78613 4.26855 4.79492 4.36523 4.8125 4.4082C4.83203 4.45117 4.8623 4.48535 4.90332 4.51074C4.94629 4.53613 5.00684 4.54883 5.08496 4.54883C5.14355 4.54883 5.2207 4.54199 5.31641 4.52832ZM6.98633 4.52832L7.0625 4.99414C6.91406 5.02539 6.78125 5.04102 6.66406 5.04102C6.47266 5.04102 6.32422 5.01074 6.21875 4.9502C6.11328 4.88965 6.03906 4.81055 5.99609 4.71289C5.95312 4.61328 5.93164 4.40527 5.93164 4.08887V2.29883H5.54492V1.88867H5.93164V1.11816L6.45605 0.801758V1.88867H6.98633V2.29883H6.45605V4.11816C6.45605 4.26855 6.46484 4.36523 6.48242 4.4082C6.50195 4.45117 6.53223 4.48535 6.57324 4.51074C6.61621 4.53613 6.67676 4.54883 6.75488 4.54883C6.81348 4.54883 6.89062 4.54199 6.98633 4.52832ZM7.50488 6.19238V1.88867H7.98535V2.29297C8.09863 2.13477 8.22656 2.0166 8.36914 1.93848C8.51172 1.8584 8.68457 1.81836 8.8877 1.81836C9.15332 1.81836 9.3877 1.88672 9.59082 2.02344C9.79395 2.16016 9.94727 2.35352 10.0508 2.60352C10.1543 2.85156 10.2061 3.12402 10.2061 3.4209C10.2061 3.73926 10.1484 4.02637 10.0332 4.28223C9.91992 4.53613 9.75391 4.73145 9.53516 4.86816C9.31836 5.00293 9.08984 5.07031 8.84961 5.07031C8.67383 5.07031 8.51562 5.0332 8.375 4.95898C8.23633 4.88477 8.12207 4.79102 8.03223 4.67773V6.19238H7.50488ZM7.98242 3.46191C7.98242 3.8623 8.06348 4.1582 8.22559 4.34961C8.3877 4.54102 8.58398 4.63672 8.81445 4.63672C9.04883 4.63672 9.24902 4.53809 9.41504 4.34082C9.58301 4.1416 9.66699 3.83398 9.66699 3.41797C9.66699 3.02148 9.58496 2.72461 9.4209 2.52734C9.25879 2.33008 9.06445 2.23145 8.83789 2.23145C8.61328 2.23145 8.41406 2.33691 8.24023 2.54785C8.06836 2.75684 7.98242 3.06152 7.98242 3.46191ZM10.6338 4.07129L11.1553 3.98926C11.1846 4.19824 11.2656 4.3584 11.3984 4.46973C11.5332 4.58105 11.7207 4.63672 11.9609 4.63672C12.2031 4.63672 12.3828 4.58789 12.5 4.49023C12.6172 4.39062 12.6758 4.27441 12.6758 4.1416C12.6758 4.02246 12.624 3.92871 12.5205 3.86035C12.4482 3.81348 12.2686 3.75391 11.9814 3.68164C11.5947 3.58398 11.3262 3.5 11.1758 3.42969C11.0273 3.35742 10.9141 3.25879 10.8359 3.13379C10.7598 3.00684 10.7217 2.86719 10.7217 2.71484C10.7217 2.57617 10.7529 2.44824 10.8154 2.33105C10.8799 2.21191 10.9668 2.11328 11.0762 2.03516C11.1582 1.97461 11.2695 1.92383 11.4102 1.88281C11.5527 1.83984 11.7051 1.81836 11.8672 1.81836C12.1113 1.81836 12.3252 1.85352 12.5088 1.92383C12.6943 1.99414 12.8311 2.08984 12.9189 2.21094C13.0068 2.33008 13.0674 2.49023 13.1006 2.69141L12.585 2.76172C12.5615 2.60156 12.4932 2.47656 12.3799 2.38672C12.2686 2.29688 12.1104 2.25195 11.9053 2.25195C11.6631 2.25195 11.4902 2.29199 11.3867 2.37207C11.2832 2.45215 11.2314 2.5459 11.2314 2.65332C11.2314 2.72168 11.2529 2.7832 11.2959 2.83789C11.3389 2.89453 11.4062 2.94141 11.498 2.97852C11.5508 2.99805 11.7061 3.04297 11.9639 3.11328C12.3369 3.21289 12.5967 3.29492 12.7432 3.35938C12.8916 3.42188 13.0078 3.51367 13.0918 3.63477C13.1758 3.75586 13.2178 3.90625 13.2178 4.08594C13.2178 4.26172 13.166 4.42773 13.0625 4.58398C12.9609 4.73828 12.8135 4.8584 12.6201 4.94434C12.4268 5.02832 12.208 5.07031 11.9639 5.07031C11.5596 5.07031 11.251 4.98633 11.0381 4.81836C10.8271 4.65039 10.6924 4.40137 10.6338 4.07129ZM13.9912 2.48926V1.88867H14.5918V2.48926H13.9912ZM13.9912 5V4.39941H14.5918V5H13.9912ZM15.1191 5.07324L16.3643 0.631836H16.7861L15.5439 5.07324H15.1191ZM16.7891 5.07324L18.0342 0.631836H18.4561L17.2139 5.07324H16.7891ZM20.8848 3.86035L21.4033 3.92773C21.3467 4.28516 21.2012 4.56543 20.9668 4.76855C20.7344 4.96973 20.4482 5.07031 20.1084 5.07031C19.6826 5.07031 19.3398 4.93164 19.0801 4.6543C18.8223 4.375 18.6934 3.97559 18.6934 3.45605C18.6934 3.12012 18.749 2.82617 18.8604 2.57422C18.9717 2.32227 19.1406 2.13379 19.3672 2.00879C19.5957 1.88184 19.8438 1.81836 20.1113 1.81836C20.4492 1.81836 20.7256 1.9043 20.9404 2.07617C21.1553 2.24609 21.293 2.48828 21.3535 2.80273L20.8408 2.88184C20.792 2.67285 20.7051 2.51562 20.5801 2.41016C20.457 2.30469 20.3076 2.25195 20.1318 2.25195C19.8662 2.25195 19.6504 2.34766 19.4844 2.53906C19.3184 2.72852 19.2354 3.0293 19.2354 3.44141C19.2354 3.85938 19.3154 4.16309 19.4756 4.35254C19.6357 4.54199 19.8447 4.63672 20.1025 4.63672C20.3096 4.63672 20.4824 4.57324 20.6211 4.44629C20.7598 4.31934 20.8477 4.12402 20.8848 3.86035ZM21.6582 3.44434C21.6582 2.86816 21.8184 2.44141 22.1387 2.16406C22.4062 1.93359 22.7324 1.81836 23.1172 1.81836C23.5449 1.81836 23.8945 1.95898 24.166 2.24023C24.4375 2.51953 24.5732 2.90625 24.5732 3.40039C24.5732 3.80078 24.5127 4.11621 24.3916 4.34668C24.2725 4.5752 24.0977 4.75293 23.8672 4.87988C23.6387 5.00684 23.3887 5.07031 23.1172 5.07031C22.6816 5.07031 22.3291 4.93066 22.0596 4.65137C21.792 4.37207 21.6582 3.96973 21.6582 3.44434ZM22.2002 3.44434C22.2002 3.84277 22.2871 4.1416 22.4609 4.34082C22.6348 4.53809 22.8535 4.63672 23.1172 4.63672C23.3789 4.63672 23.5967 4.53711 23.7705 4.33789C23.9443 4.13867 24.0312 3.83496 24.0312 3.42676C24.0312 3.04199 23.9434 2.75098 23.7676 2.55371C23.5938 2.35449 23.377 2.25488 23.1172 2.25488C22.8535 2.25488 22.6348 2.35352 22.4609 2.55078C22.2871 2.74805 22.2002 3.0459 22.2002 3.44434ZM24.998 3.44434C24.998 2.86816 25.1582 2.44141 25.4785 2.16406C25.7461 1.93359 26.0723 1.81836 26.457 1.81836C26.8848 1.81836 27.2344 1.95898 27.5059 2.24023C27.7773 2.51953 27.9131 2.90625 27.9131 3.40039C27.9131 3.80078 27.8525 4.11621 27.7314 4.34668C27.6123 4.5752 27.4375 4.75293 27.207 4.87988C26.9785 5.00684 26.7285 5.07031 26.457 5.07031C26.0215 5.07031 25.6689 4.93066 25.3994 4.65137C25.1318 4.37207 24.998 3.96973 24.998 3.44434ZM25.54 3.44434C25.54 3.84277 25.627 4.1416 25.8008 4.34082C25.9746 4.53809 26.1934 4.63672 26.457 4.63672C26.7188 4.63672 26.9365 4.53711 27.1104 4.33789C27.2842 4.13867 27.3711 3.83496 27.3711 3.42676C27.3711 3.04199 27.2832 2.75098 27.1074 2.55371C26.9336 2.35449 26.7168 2.25488 26.457 2.25488C26.1934 2.25488 25.9746 2.35352 25.8008 2.55078C25.627 2.74805 25.54 3.0459 25.54 3.44434ZM28.5225 5V0.705078H29.0498V5H28.5225ZM29.6738 3.44434C29.6738 2.86816 29.834 2.44141 30.1543 2.16406C30.4219 1.93359 30.748 1.81836 31.1328 1.81836C31.5605 1.81836 31.9102 1.95898 32.1816 2.24023C32.4531 2.51953 32.5889 2.90625 32.5889 3.40039C32.5889 3.80078 32.5283 4.11621 32.4072 4.34668C32.2881 4.5752 32.1133 4.75293 31.8828 4.87988C31.6543 5.00684 31.4043 5.07031 31.1328 5.07031C30.6973 5.07031 30.3447 4.93066 30.0752 4.65137C29.8076 4.37207 29.6738 3.96973 29.6738 3.44434ZM30.2158 3.44434C30.2158 3.84277 30.3027 4.1416 30.4766 4.34082C30.6504 4.53809 30.8691 4.63672 31.1328 4.63672C31.3945 4.63672 31.6123 4.53711 31.7861 4.33789C31.96 4.13867 32.0469 3.83496 32.0469 3.42676C32.0469 3.04199 31.959 2.75098 31.7832 2.55371C31.6094 2.35449 31.3926 2.25488 31.1328 2.25488C30.8691 2.25488 30.6504 2.35352 30.4766 2.55078C30.3027 2.74805 30.2158 3.0459 30.2158 3.44434ZM33.2041 5V1.88867H33.6787V2.36035C33.7998 2.13965 33.9111 1.99414 34.0127 1.92383C34.1162 1.85352 34.2295 1.81836 34.3525 1.81836C34.5303 1.81836 34.7109 1.875 34.8945 1.98828L34.7129 2.47754C34.584 2.40137 34.4551 2.36328 34.3262 2.36328C34.2109 2.36328 34.1074 2.39844 34.0156 2.46875C33.9238 2.53711 33.8584 2.63281 33.8193 2.75586C33.7607 2.94336 33.7314 3.14844 33.7314 3.37109V5H33.2041ZM34.9971 4.07129L35.5186 3.98926C35.5479 4.19824 35.6289 4.3584 35.7617 4.46973C35.8965 4.58105 36.084 4.63672 36.3242 4.63672C36.5664 4.63672 36.7461 4.58789 36.8633 4.49023C36.9805 4.39062 37.0391 4.27441 37.0391 4.1416C37.0391 4.02246 36.9873 3.92871 36.8838 3.86035C36.8115 3.81348 36.6318 3.75391 36.3447 3.68164C35.958 3.58398 35.6895 3.5 35.5391 3.42969C35.3906 3.35742 35.2773 3.25879 35.1992 3.13379C35.123 3.00684 35.085 2.86719 35.085 2.71484C35.085 2.57617 35.1162 2.44824 35.1787 2.33105C35.2432 2.21191 35.3301 2.11328 35.4395 2.03516C35.5215 1.97461 35.6328 1.92383 35.7734 1.88281C35.916 1.83984 36.0684 1.81836 36.2305 1.81836C36.4746 1.81836 36.6885 1.85352 36.8721 1.92383C37.0576 1.99414 37.1943 2.08984 37.2822 2.21094C37.3701 2.33008 37.4307 2.49023 37.4639 2.69141L36.9482 2.76172C36.9248 2.60156 36.8564 2.47656 36.7432 2.38672C36.6318 2.29688 36.4736 2.25195 36.2686 2.25195C36.0264 2.25195 35.8535 2.29199 35.75 2.37207C35.6465 2.45215 35.5947 2.5459 35.5947 2.65332C35.5947 2.72168 35.6162 2.7832 35.6592 2.83789C35.7021 2.89453 35.7695 2.94141 35.8613 2.97852C35.9141 2.99805 36.0693 3.04297 36.3271 3.11328C36.7002 3.21289 36.96 3.29492 37.1064 3.35938C37.2549 3.42188 37.3711 3.51367 37.4551 3.63477C37.5391 3.75586 37.5811 3.90625 37.5811 4.08594C37.5811 4.26172 37.5293 4.42773 37.4258 4.58398C37.3242 4.73828 37.1768 4.8584 36.9834 4.94434C36.79 5.02832 36.5713 5.07031 36.3271 5.07031C35.9229 5.07031 35.6143 4.98633 35.4014 4.81836C35.1904 4.65039 35.0557 4.40137 34.9971 4.07129ZM38.3574 5V4.39941H38.958V5H38.3574ZM41.9082 3.86035L42.4268 3.92773C42.3701 4.28516 42.2246 4.56543 41.9902 4.76855C41.7578 4.96973 41.4717 5.07031 41.1318 5.07031C40.7061 5.07031 40.3633 4.93164 40.1035 4.6543C39.8457 4.375 39.7168 3.97559 39.7168 3.45605C39.7168 3.12012 39.7725 2.82617 39.8838 2.57422C39.9951 2.32227 40.1641 2.13379 40.3906 2.00879C40.6191 1.88184 40.8672 1.81836 41.1348 1.81836C41.4727 1.81836 41.749 1.9043 41.9639 2.07617C42.1787 2.24609 42.3164 2.48828 42.377 2.80273L41.8643 2.88184C41.8154 2.67285 41.7285 2.51562 41.6035 2.41016C41.4805 2.30469 41.3311 2.25195 41.1553 2.25195C40.8896 2.25195 40.6738 2.34766 40.5078 2.53906C40.3418 2.72852 40.2588 3.0293 40.2588 3.44141C40.2588 3.85938 40.3389 4.16309 40.499 4.35254C40.6592 4.54199 40.8682 4.63672 41.126 4.63672C41.333 4.63672 41.5059 4.57324 41.6445 4.44629C41.7832 4.31934 41.8711 4.12402 41.9082 3.86035ZM42.6816 3.44434C42.6816 2.86816 42.8418 2.44141 43.1621 2.16406C43.4297 1.93359 43.7559 1.81836 44.1406 1.81836C44.5684 1.81836 44.918 1.95898 45.1895 2.24023C45.4609 2.51953 45.5967 2.90625 45.5967 3.40039C45.5967 3.80078 45.5361 4.11621 45.415 4.34668C45.2959 4.5752 45.1211 4.75293 44.8906 4.87988C44.6621 5.00684 44.4121 5.07031 44.1406 5.07031C43.7051 5.07031 43.3525 4.93066 43.083 4.65137C42.8154 4.37207 42.6816 3.96973 42.6816 3.44434ZM43.2236 3.44434C43.2236 3.84277 43.3105 4.1416 43.4844 4.34082C43.6582 4.53809 43.877 4.63672 44.1406 4.63672C44.4023 4.63672 44.6201 4.53711 44.7939 4.33789C44.9678 4.13867 45.0547 3.83496 45.0547 3.42676C45.0547 3.04199 44.9668 2.75098 44.791 2.55371C44.6172 2.35449 44.4004 2.25488 44.1406 2.25488C43.877 2.25488 43.6582 2.35352 43.4844 2.55078C43.3105 2.74805 43.2236 3.0459 43.2236 3.44434ZM45.8223 5.07324L47.0674 0.631836H47.4893L46.2471 5.07324H45.8223ZM50.0176 3.99805L50.5625 4.06543C50.4766 4.38379 50.3174 4.63086 50.085 4.80664C49.8525 4.98242 49.5557 5.07031 49.1943 5.07031C48.7393 5.07031 48.3779 4.93066 48.1104 4.65137C47.8447 4.37012 47.7119 3.97656 47.7119 3.4707C47.7119 2.94727 47.8467 2.54102 48.1162 2.25195C48.3857 1.96289 48.7354 1.81836 49.165 1.81836C49.5811 1.81836 49.9209 1.95996 50.1846 2.24316C50.4482 2.52637 50.5801 2.9248 50.5801 3.43848C50.5801 3.46973 50.5791 3.5166 50.5771 3.5791H48.2568C48.2764 3.9209 48.373 4.18262 48.5469 4.36426C48.7207 4.5459 48.9375 4.63672 49.1973 4.63672C49.3906 4.63672 49.5557 4.58594 49.6924 4.48438C49.8291 4.38281 49.9375 4.2207 50.0176 3.99805ZM48.2861 3.14551H50.0234C50 2.88379 49.9336 2.6875 49.8242 2.55664C49.6562 2.35352 49.4385 2.25195 49.1709 2.25195C48.9287 2.25195 48.7246 2.33301 48.5586 2.49512C48.3945 2.65723 48.3037 2.87402 48.2861 3.14551ZM53.3574 3.99805L53.9023 4.06543C53.8164 4.38379 53.6572 4.63086 53.4248 4.80664C53.1924 4.98242 52.8955 5.07031 52.5342 5.07031C52.0791 5.07031 51.7178 4.93066 51.4502 4.65137C51.1846 4.37012 51.0518 3.97656 51.0518 3.4707C51.0518 2.94727 51.1865 2.54102 51.4561 2.25195C51.7256 1.96289 52.0752 1.81836 52.5049 1.81836C52.9209 1.81836 53.2607 1.95996 53.5244 2.24316C53.7881 2.52637 53.9199 2.9248 53.9199 3.43848C53.9199 3.46973 53.9189 3.5166 53.917 3.5791H51.5967C51.6162 3.9209 51.7129 4.18262 51.8867 4.36426C52.0605 4.5459 52.2773 4.63672 52.5371 4.63672C52.7305 4.63672 52.8955 4.58594 53.0322 4.48438C53.1689 4.38281 53.2773 4.2207 53.3574 3.99805ZM51.626 3.14551H53.3633C53.3398 2.88379 53.2734 2.6875 53.1641 2.55664C52.9961 2.35352 52.7783 2.25195 52.5107 2.25195C52.2686 2.25195 52.0645 2.33301 51.8984 2.49512C51.7344 2.65723 51.6436 2.87402 51.626 3.14551ZM57.1924 4.49316V5H54.3535C54.3496 4.87305 54.3701 4.75098 54.415 4.63379C54.4873 4.44043 54.6025 4.25 54.7607 4.0625C54.9209 3.875 55.1514 3.6582 55.4521 3.41211C55.9189 3.0293 56.2344 2.72656 56.3984 2.50391C56.5625 2.2793 56.6445 2.06738 56.6445 1.86816C56.6445 1.65918 56.5693 1.4834 56.4189 1.34082C56.2705 1.19629 56.0762 1.12402 55.8359 1.12402C55.582 1.12402 55.3789 1.2002 55.2266 1.35254C55.0742 1.50488 54.9971 1.71582 54.9951 1.98535L54.4531 1.92969C54.4902 1.52539 54.6299 1.21777 54.8721 1.00684C55.1143 0.793945 55.4395 0.6875 55.8477 0.6875C56.2598 0.6875 56.5859 0.801758 56.8262 1.03027C57.0664 1.25879 57.1865 1.54199 57.1865 1.87988C57.1865 2.05176 57.1514 2.2207 57.0811 2.38672C57.0107 2.55273 56.8936 2.72754 56.7295 2.91113C56.5674 3.09473 56.2969 3.34668 55.918 3.66699C55.6016 3.93262 55.3984 4.11328 55.3086 4.20898C55.2188 4.30273 55.1445 4.39746 55.0859 4.49316H57.1924ZM57.7607 3.875L58.3145 3.82812C58.3555 4.09766 58.4502 4.30078 58.5986 4.4375C58.749 4.57227 58.9297 4.63965 59.1406 4.63965C59.3945 4.63965 59.6094 4.54395 59.7852 4.35254C59.9609 4.16113 60.0488 3.90723 60.0488 3.59082C60.0488 3.29004 59.9639 3.05273 59.7939 2.87891C59.626 2.70508 59.4053 2.61816 59.1318 2.61816C58.9619 2.61816 58.8086 2.65723 58.6719 2.73535C58.5352 2.81152 58.4277 2.91113 58.3496 3.03418L57.8545 2.96973L58.2705 0.763672H60.4062V1.26758H58.6924L58.4609 2.42188C58.7188 2.24219 58.9893 2.15234 59.2725 2.15234C59.6475 2.15234 59.9639 2.28223 60.2217 2.54199C60.4795 2.80176 60.6084 3.13574 60.6084 3.54395C60.6084 3.93262 60.4951 4.26855 60.2686 4.55176C59.9932 4.89941 59.6172 5.07324 59.1406 5.07324C58.75 5.07324 58.4307 4.96387 58.1826 4.74512C57.9365 4.52637 57.7959 4.23633 57.7607 3.875ZM63.8721 4.49316V5H61.0332C61.0293 4.87305 61.0498 4.75098 61.0947 4.63379C61.167 4.44043 61.2822 4.25 61.4404 4.0625C61.6006 3.875 61.8311 3.6582 62.1318 3.41211C62.5986 3.0293 62.9141 2.72656 63.0781 2.50391C63.2422 2.2793 63.3242 2.06738 63.3242 1.86816C63.3242 1.65918 63.249 1.4834 63.0986 1.34082C62.9502 1.19629 62.7559 1.12402 62.5156 1.12402C62.2617 1.12402 62.0586 1.2002 61.9062 1.35254C61.7539 1.50488 61.6768 1.71582 61.6748 1.98535L61.1328 1.92969C61.1699 1.52539 61.3096 1.21777 61.5518 1.00684C61.7939 0.793945 62.1191 0.6875 62.5273 0.6875C62.9395 0.6875 63.2656 0.801758 63.5059 1.03027C63.7461 1.25879 63.8662 1.54199 63.8662 1.87988C63.8662 2.05176 63.8311 2.2207 63.7607 2.38672C63.6904 2.55273 63.5732 2.72754 63.4092 2.91113C63.2471 3.09473 62.9766 3.34668 62.5977 3.66699C62.2812 3.93262 62.0781 4.11328 61.9883 4.20898C61.8984 4.30273 61.8242 4.39746 61.7656 4.49316H63.8721ZM66.1309 5V3.97168H64.2676V3.48828L66.2275 0.705078H66.6582V3.48828H67.2383V3.97168H66.6582V5H66.1309ZM66.1309 3.48828V1.55176L64.7861 3.48828H66.1309ZM67.7217 3.71094V3.18066H69.3418V3.71094H67.7217ZM71.7646 5H71.2373V1.63965C71.1104 1.76074 70.9434 1.88184 70.7363 2.00293C70.5312 2.12402 70.3467 2.21484 70.1826 2.27539V1.76562C70.4775 1.62695 70.7354 1.45898 70.9561 1.26172C71.1768 1.06445 71.333 0.873047 71.4248 0.6875H71.7646V5ZM73.3906 5V2.29883H72.9248V1.88867H73.3906V1.55762C73.3906 1.34863 73.4092 1.19336 73.4463 1.0918C73.4971 0.955078 73.5859 0.844727 73.7129 0.760742C73.8418 0.674805 74.0215 0.631836 74.252 0.631836C74.4004 0.631836 74.5645 0.649414 74.7441 0.68457L74.665 1.14453C74.5557 1.125 74.4521 1.11523 74.3545 1.11523C74.1943 1.11523 74.0811 1.14941 74.0146 1.21777C73.9482 1.28613 73.915 1.41406 73.915 1.60156V1.88867H74.5215V2.29883H73.915V5H73.3906ZM76.4785 5V3.97168H74.6152V3.48828L76.5752 0.705078H77.0059V3.48828H77.5859V3.97168H77.0059V5H76.4785ZM76.4785 3.48828V1.55176L75.1338 3.48828H76.4785ZM78.9395 2.6709C78.7207 2.59082 78.5586 2.47656 78.4531 2.32812C78.3477 2.17969 78.2949 2.00195 78.2949 1.79492C78.2949 1.48242 78.4072 1.21973 78.6318 1.00684C78.8564 0.793945 79.1553 0.6875 79.5283 0.6875C79.9033 0.6875 80.2051 0.796875 80.4336 1.01562C80.6621 1.23242 80.7764 1.49707 80.7764 1.80957C80.7764 2.00879 80.7236 2.18262 80.6182 2.33105C80.5146 2.47754 80.3564 2.59082 80.1436 2.6709C80.4072 2.75684 80.6074 2.89551 80.7441 3.08691C80.8828 3.27832 80.9521 3.50684 80.9521 3.77246C80.9521 4.13965 80.8223 4.44824 80.5625 4.69824C80.3027 4.94824 79.9609 5.07324 79.5371 5.07324C79.1133 5.07324 78.7715 4.94824 78.5117 4.69824C78.252 4.44629 78.1221 4.13281 78.1221 3.75781C78.1221 3.47852 78.1924 3.24512 78.333 3.05762C78.4756 2.86816 78.6777 2.73926 78.9395 2.6709ZM78.834 1.77734C78.834 1.98047 78.8994 2.14648 79.0303 2.27539C79.1611 2.4043 79.3311 2.46875 79.54 2.46875C79.7432 2.46875 79.9092 2.40527 80.0381 2.27832C80.1689 2.14941 80.2344 1.99219 80.2344 1.80664C80.2344 1.61328 80.167 1.45117 80.0322 1.32031C79.8994 1.1875 79.7334 1.12109 79.5342 1.12109C79.333 1.12109 79.166 1.18555 79.0332 1.31445C78.9004 1.44336 78.834 1.59766 78.834 1.77734ZM78.6641 3.76074C78.6641 3.91113 78.6992 4.05664 78.7695 4.19727C78.8418 4.33789 78.9482 4.44727 79.0889 4.52539C79.2295 4.60156 79.3809 4.63965 79.543 4.63965C79.7949 4.63965 80.0029 4.55859 80.167 4.39648C80.3311 4.23438 80.4131 4.02832 80.4131 3.77832C80.4131 3.52441 80.3281 3.31445 80.1582 3.14844C79.9902 2.98242 79.7793 2.89941 79.5254 2.89941C79.2773 2.89941 79.0713 2.98145 78.9072 3.14551C78.7451 3.30957 78.6641 3.51465 78.6641 3.76074ZM81.5029 1.26758V0.760742H84.2832V1.1709C84.0098 1.46191 83.7383 1.84863 83.4688 2.33105C83.2012 2.81348 82.9941 3.30957 82.8477 3.81934C82.7422 4.17871 82.6748 4.57227 82.6455 5H82.1035C82.1094 4.66211 82.1758 4.25391 82.3027 3.77539C82.4297 3.29688 82.6113 2.83594 82.8477 2.39258C83.0859 1.94727 83.3389 1.57227 83.6064 1.26758H81.5029ZM87.084 3.99805L87.6289 4.06543C87.543 4.38379 87.3838 4.63086 87.1514 4.80664C86.9189 4.98242 86.6221 5.07031 86.2607 5.07031C85.8057 5.07031 85.4443 4.93066 85.1768 4.65137C84.9111 4.37012 84.7783 3.97656 84.7783 3.4707C84.7783 2.94727 84.9131 2.54102 85.1826 2.25195C85.4521 1.96289 85.8018 1.81836 86.2314 1.81836C86.6475 1.81836 86.9873 1.95996 87.251 2.24316C87.5146 2.52637 87.6465 2.9248 87.6465 3.43848C87.6465 3.46973 87.6455 3.5166 87.6436 3.5791H85.3232C85.3428 3.9209 85.4395 4.18262 85.6133 4.36426C85.7871 4.5459 86.0039 4.63672 86.2637 4.63672C86.457 4.63672 86.6221 4.58594 86.7588 4.48438C86.8955 4.38281 87.0039 4.2207 87.084 3.99805ZM85.3525 3.14551H87.0898C87.0664 2.88379 87 2.6875 86.8906 2.55664C86.7227 2.35352 86.5049 2.25195 86.2373 2.25195C85.9951 2.25195 85.791 2.33301 85.625 2.49512C85.4609 2.65723 85.3701 2.87402 85.3525 3.14551ZM88.0889 3.71094V3.18066H89.709V3.71094H88.0889ZM90.1455 2.88184C90.1455 2.37402 90.1973 1.96582 90.3008 1.65723C90.4062 1.34668 90.5615 1.10742 90.7666 0.939453C90.9736 0.771484 91.2334 0.6875 91.5459 0.6875C91.7764 0.6875 91.9785 0.734375 92.1523 0.828125C92.3262 0.919922 92.4697 1.05371 92.583 1.22949C92.6963 1.40332 92.7852 1.61621 92.8496 1.86816C92.9141 2.11816 92.9463 2.45605 92.9463 2.88184C92.9463 3.38574 92.8945 3.79297 92.791 4.10352C92.6875 4.41211 92.5322 4.65137 92.3252 4.82129C92.1201 4.98926 91.8604 5.07324 91.5459 5.07324C91.1318 5.07324 90.8066 4.9248 90.5703 4.62793C90.2871 4.27051 90.1455 3.68848 90.1455 2.88184ZM90.6875 2.88184C90.6875 3.58691 90.7695 4.05664 90.9336 4.29102C91.0996 4.52344 91.3037 4.63965 91.5459 4.63965C91.7881 4.63965 91.9912 4.52246 92.1553 4.28809C92.3213 4.05371 92.4043 3.58496 92.4043 2.88184C92.4043 2.1748 92.3213 1.70508 92.1553 1.47266C91.9912 1.24023 91.7861 1.12402 91.54 1.12402C91.2979 1.12402 91.1045 1.22656 90.96 1.43164C90.7783 1.69336 90.6875 2.17676 90.6875 2.88184ZM95.6504 5V4.60742C95.4531 4.91602 95.1631 5.07031 94.7803 5.07031C94.5322 5.07031 94.3037 5.00195 94.0947 4.86523C93.8877 4.72852 93.7266 4.53809 93.6113 4.29395C93.498 4.04785 93.4414 3.76562 93.4414 3.44727C93.4414 3.13672 93.4932 2.85547 93.5967 2.60352C93.7002 2.34961 93.8555 2.15527 94.0625 2.02051C94.2695 1.88574 94.501 1.81836 94.7568 1.81836C94.9443 1.81836 95.1113 1.8584 95.2578 1.93848C95.4043 2.0166 95.5234 2.11914 95.6152 2.24609V0.705078H96.1396V5H95.6504ZM93.9834 3.44727C93.9834 3.8457 94.0674 4.14355 94.2354 4.34082C94.4033 4.53809 94.6016 4.63672 94.8301 4.63672C95.0605 4.63672 95.2559 4.54297 95.416 4.35547C95.5781 4.16602 95.6592 3.87793 95.6592 3.49121C95.6592 3.06543 95.5771 2.75293 95.4131 2.55371C95.249 2.35449 95.0469 2.25488 94.8066 2.25488C94.5723 2.25488 94.376 2.35059 94.2178 2.54199C94.0615 2.7334 93.9834 3.03516 93.9834 3.44727ZM98.8115 5H98.2842V1.63965C98.1572 1.76074 97.9902 1.88184 97.7832 2.00293C97.5781 2.12402 97.3936 2.21484 97.2295 2.27539V1.76562C97.5244 1.62695 97.7822 1.45898 98.0029 1.26172C98.2236 1.06445 98.3799 0.873047 98.4717 0.6875H98.8115V5ZM102.901 1.75684L102.377 1.79785C102.33 1.59082 102.264 1.44043 102.178 1.34668C102.035 1.19629 101.859 1.12109 101.65 1.12109C101.482 1.12109 101.335 1.16797 101.208 1.26172C101.042 1.38281 100.911 1.55957 100.815 1.79199C100.72 2.02441 100.67 2.35547 100.666 2.78516C100.793 2.5918 100.948 2.44824 101.132 2.35449C101.315 2.26074 101.508 2.21387 101.709 2.21387C102.061 2.21387 102.359 2.34375 102.605 2.60352C102.854 2.86133 102.978 3.19531 102.978 3.60547C102.978 3.875 102.919 4.12598 102.802 4.3584C102.687 4.58887 102.527 4.76562 102.324 4.88867C102.121 5.01172 101.891 5.07324 101.633 5.07324C101.193 5.07324 100.835 4.91211 100.558 4.58984C100.28 4.26562 100.142 3.73242 100.142 2.99023C100.142 2.16016 100.295 1.55664 100.602 1.17969C100.869 0.851562 101.229 0.6875 101.683 0.6875C102.021 0.6875 102.297 0.782227 102.512 0.97168C102.729 1.16113 102.858 1.42285 102.901 1.75684ZM100.748 3.6084C100.748 3.79004 100.786 3.96387 100.862 4.12988C100.94 4.2959 101.049 4.42285 101.188 4.51074C101.326 4.59668 101.472 4.63965 101.624 4.63965C101.847 4.63965 102.038 4.5498 102.198 4.37012C102.358 4.19043 102.438 3.94629 102.438 3.6377C102.438 3.34082 102.359 3.10742 102.201 2.9375C102.043 2.76562 101.844 2.67969 101.604 2.67969C101.365 2.67969 101.163 2.76562 100.997 2.9375C100.831 3.10742 100.748 3.33105 100.748 3.6084ZM103.505 2.88184C103.505 2.37402 103.557 1.96582 103.66 1.65723C103.766 1.34668 103.921 1.10742 104.126 0.939453C104.333 0.771484 104.593 0.6875 104.905 0.6875C105.136 0.6875 105.338 0.734375 105.512 0.828125C105.686 0.919922 105.829 1.05371 105.942 1.22949C106.056 1.40332 106.145 1.61621 106.209 1.86816C106.273 2.11816 106.306 2.45605 106.306 2.88184C106.306 3.38574 106.254 3.79297 106.15 4.10352C106.047 4.41211 105.892 4.65137 105.685 4.82129C105.479 4.98926 105.22 5.07324 104.905 5.07324C104.491 5.07324 104.166 4.9248 103.93 4.62793C103.646 4.27051 103.505 3.68848 103.505 2.88184ZM104.047 2.88184C104.047 3.58691 104.129 4.05664 104.293 4.29102C104.459 4.52344 104.663 4.63965 104.905 4.63965C105.147 4.63965 105.351 4.52246 105.515 4.28809C105.681 4.05371 105.764 3.58496 105.764 2.88184C105.764 2.1748 105.681 1.70508 105.515 1.47266C105.351 1.24023 105.146 1.12402 104.899 1.12402C104.657 1.12402 104.464 1.22656 104.319 1.43164C104.138 1.69336 104.047 2.17676 104.047 2.88184ZM107.478 5H106.988V0.705078H107.516V2.2373C107.738 1.95801 108.022 1.81836 108.368 1.81836C108.56 1.81836 108.74 1.85742 108.91 1.93555C109.082 2.01172 109.223 2.12012 109.332 2.26074C109.443 2.39941 109.53 2.56738 109.593 2.76465C109.655 2.96191 109.687 3.17285 109.687 3.39746C109.687 3.93066 109.555 4.34277 109.291 4.63379C109.027 4.9248 108.711 5.07031 108.342 5.07031C107.975 5.07031 107.687 4.91699 107.478 4.61035V5ZM107.472 3.4209C107.472 3.79395 107.522 4.06348 107.624 4.22949C107.79 4.50098 108.015 4.63672 108.298 4.63672C108.528 4.63672 108.728 4.53711 108.896 4.33789C109.063 4.13672 109.147 3.83789 109.147 3.44141C109.147 3.03516 109.066 2.73535 108.904 2.54199C108.744 2.34863 108.55 2.25195 108.321 2.25195C108.091 2.25195 107.892 2.35254 107.724 2.55371C107.556 2.75293 107.472 3.04199 107.472 3.4209ZM110.126 3.71094V3.18066H111.746V3.71094H110.126ZM112.815 5H112.326V0.705078H112.854V2.2373C113.076 1.95801 113.36 1.81836 113.706 1.81836C113.897 1.81836 114.078 1.85742 114.248 1.93555C114.42 2.01172 114.561 2.12012 114.67 2.26074C114.781 2.39941 114.868 2.56738 114.931 2.76465C114.993 2.96191 115.024 3.17285 115.024 3.39746C115.024 3.93066 114.893 4.34277 114.629 4.63379C114.365 4.9248 114.049 5.07031 113.68 5.07031C113.312 5.07031 113.024 4.91699 112.815 4.61035V5ZM112.81 3.4209C112.81 3.79395 112.86 4.06348 112.962 4.22949C113.128 4.50098 113.353 4.63672 113.636 4.63672C113.866 4.63672 114.065 4.53711 114.233 4.33789C114.401 4.13672 114.485 3.83789 114.485 3.44141C114.485 3.03516 114.404 2.73535 114.242 2.54199C114.082 2.34863 113.888 2.25195 113.659 2.25195C113.429 2.25195 113.229 2.35254 113.062 2.55371C112.894 2.75293 112.81 3.04199 112.81 3.4209ZM116.334 2.6709C116.115 2.59082 115.953 2.47656 115.848 2.32812C115.742 2.17969 115.689 2.00195 115.689 1.79492C115.689 1.48242 115.802 1.21973 116.026 1.00684C116.251 0.793945 116.55 0.6875 116.923 0.6875C117.298 0.6875 117.6 0.796875 117.828 1.01562C118.057 1.23242 118.171 1.49707 118.171 1.80957C118.171 2.00879 118.118 2.18262 118.013 2.33105C117.909 2.47754 117.751 2.59082 117.538 2.6709C117.802 2.75684 118.002 2.89551 118.139 3.08691C118.277 3.27832 118.347 3.50684 118.347 3.77246C118.347 4.13965 118.217 4.44824 117.957 4.69824C117.697 4.94824 117.355 5.07324 116.932 5.07324C116.508 5.07324 116.166 4.94824 115.906 4.69824C115.646 4.44629 115.517 4.13281 115.517 3.75781C115.517 3.47852 115.587 3.24512 115.728 3.05762C115.87 2.86816 116.072 2.73926 116.334 2.6709ZM116.229 1.77734C116.229 1.98047 116.294 2.14648 116.425 2.27539C116.556 2.4043 116.726 2.46875 116.935 2.46875C117.138 2.46875 117.304 2.40527 117.433 2.27832C117.563 2.14941 117.629 1.99219 117.629 1.80664C117.629 1.61328 117.562 1.45117 117.427 1.32031C117.294 1.1875 117.128 1.12109 116.929 1.12109C116.728 1.12109 116.561 1.18555 116.428 1.31445C116.295 1.44336 116.229 1.59766 116.229 1.77734ZM116.059 3.76074C116.059 3.91113 116.094 4.05664 116.164 4.19727C116.236 4.33789 116.343 4.44727 116.483 4.52539C116.624 4.60156 116.775 4.63965 116.938 4.63965C117.189 4.63965 117.397 4.55859 117.562 4.39648C117.726 4.23438 117.808 4.02832 117.808 3.77832C117.808 3.52441 117.723 3.31445 117.553 3.14844C117.385 2.98242 117.174 2.89941 116.92 2.89941C116.672 2.89941 116.466 2.98145 116.302 3.14551C116.14 3.30957 116.059 3.51465 116.059 3.76074ZM121.027 5V4.60742C120.83 4.91602 120.54 5.07031 120.157 5.07031C119.909 5.07031 119.681 5.00195 119.472 4.86523C119.265 4.72852 119.104 4.53809 118.988 4.29395C118.875 4.04785 118.818 3.76562 118.818 3.44727C118.818 3.13672 118.87 2.85547 118.974 2.60352C119.077 2.34961 119.232 2.15527 119.439 2.02051C119.646 1.88574 119.878 1.81836 120.134 1.81836C120.321 1.81836 120.488 1.8584 120.635 1.93848C120.781 2.0166 120.9 2.11914 120.992 2.24609V0.705078H121.517V5H121.027ZM119.36 3.44727C119.36 3.8457 119.444 4.14355 119.612 4.34082C119.78 4.53809 119.979 4.63672 120.207 4.63672C120.438 4.63672 120.633 4.54297 120.793 4.35547C120.955 4.16602 121.036 3.87793 121.036 3.49121C121.036 3.06543 120.954 2.75293 120.79 2.55371C120.626 2.35449 120.424 2.25488 120.184 2.25488C119.949 2.25488 119.753 2.35059 119.595 2.54199C119.438 2.7334 119.36 3.03516 119.36 3.44727ZM122.835 5H122.346V0.705078H122.873V2.2373C123.096 1.95801 123.38 1.81836 123.726 1.81836C123.917 1.81836 124.098 1.85742 124.268 1.93555C124.439 2.01172 124.58 2.12012 124.689 2.26074C124.801 2.39941 124.888 2.56738 124.95 2.76465C125.013 2.96191 125.044 3.17285 125.044 3.39746C125.044 3.93066 124.912 4.34277 124.648 4.63379C124.385 4.9248 124.068 5.07031 123.699 5.07031C123.332 5.07031 123.044 4.91699 122.835 4.61035V5ZM122.829 3.4209C122.829 3.79395 122.88 4.06348 122.981 4.22949C123.147 4.50098 123.372 4.63672 123.655 4.63672C123.886 4.63672 124.085 4.53711 124.253 4.33789C124.421 4.13672 124.505 3.83789 124.505 3.44141C124.505 3.03516 124.424 2.73535 124.262 2.54199C124.102 2.34863 123.907 2.25195 123.679 2.25195C123.448 2.25195 123.249 2.35254 123.081 2.55371C122.913 2.75293 122.829 3.04199 122.829 3.4209ZM127.707 5V4.60742C127.51 4.91602 127.22 5.07031 126.837 5.07031C126.589 5.07031 126.36 5.00195 126.151 4.86523C125.944 4.72852 125.783 4.53809 125.668 4.29395C125.555 4.04785 125.498 3.76562 125.498 3.44727C125.498 3.13672 125.55 2.85547 125.653 2.60352C125.757 2.34961 125.912 2.15527 126.119 2.02051C126.326 1.88574 126.558 1.81836 126.813 1.81836C127.001 1.81836 127.168 1.8584 127.314 1.93848C127.461 2.0166 127.58 2.11914 127.672 2.24609V0.705078H128.196V5H127.707ZM126.04 3.44727C126.04 3.8457 126.124 4.14355 126.292 4.34082C126.46 4.53809 126.658 4.63672 126.887 4.63672C127.117 4.63672 127.312 4.54297 127.473 4.35547C127.635 4.16602 127.716 3.87793 127.716 3.49121C127.716 3.06543 127.634 2.75293 127.47 2.55371C127.306 2.35449 127.104 2.25488 126.863 2.25488C126.629 2.25488 126.433 2.35059 126.274 2.54199C126.118 2.7334 126.04 3.03516 126.04 3.44727ZM128.961 4.00684L129.468 3.95996C129.511 4.19824 129.593 4.37109 129.714 4.47852C129.835 4.58594 129.99 4.63965 130.18 4.63965C130.342 4.63965 130.483 4.60254 130.604 4.52832C130.728 4.4541 130.828 4.35547 130.906 4.23242C130.984 4.10742 131.05 3.93945 131.103 3.72852C131.155 3.51758 131.182 3.30273 131.182 3.08398C131.182 3.06055 131.181 3.02539 131.179 2.97852C131.073 3.14648 130.929 3.2832 130.745 3.38867C130.563 3.49219 130.366 3.54395 130.153 3.54395C129.798 3.54395 129.497 3.41504 129.251 3.15723C129.005 2.89941 128.882 2.55957 128.882 2.1377C128.882 1.70215 129.01 1.35156 129.266 1.08594C129.523 0.820312 129.846 0.6875 130.232 0.6875C130.512 0.6875 130.767 0.762695 130.997 0.913086C131.229 1.06348 131.405 1.27832 131.524 1.55762C131.646 1.83496 131.706 2.2373 131.706 2.76465C131.706 3.31348 131.646 3.75098 131.527 4.07715C131.408 4.40137 131.23 4.64844 130.994 4.81836C130.76 4.98828 130.484 5.07324 130.168 5.07324C129.832 5.07324 129.558 4.98047 129.345 4.79492C129.132 4.60742 129.004 4.34473 128.961 4.00684ZM131.12 2.11133C131.12 1.80859 131.039 1.56836 130.877 1.39062C130.717 1.21289 130.523 1.12402 130.297 1.12402C130.062 1.12402 129.858 1.21973 129.685 1.41113C129.511 1.60254 129.424 1.85059 129.424 2.15527C129.424 2.42871 129.506 2.65137 129.67 2.82324C129.836 2.99316 130.04 3.07812 130.282 3.07812C130.526 3.07812 130.727 2.99316 130.883 2.82324C131.041 2.65137 131.12 2.41406 131.12 2.11133ZM132.163 3.71094V3.18066H133.783V3.71094H132.163ZM134.492 5V2.29883H134.026V1.88867H134.492V1.55762C134.492 1.34863 134.511 1.19336 134.548 1.0918C134.599 0.955078 134.688 0.844727 134.814 0.760742C134.943 0.674805 135.123 0.631836 135.354 0.631836C135.502 0.631836 135.666 0.649414 135.846 0.68457L135.767 1.14453C135.657 1.125 135.554 1.11523 135.456 1.11523C135.296 1.11523 135.183 1.14941 135.116 1.21777C135.05 1.28613 135.017 1.41406 135.017 1.60156V1.88867H135.623V2.29883H135.017V5H134.492ZM137.58 5V3.97168H135.717V3.48828L137.677 0.705078H138.107V3.48828H138.688V3.97168H138.107V5H137.58ZM137.58 3.48828V1.55176L136.235 3.48828H137.58ZM139.502 5V2.29883H139.036V1.88867H139.502V1.55762C139.502 1.34863 139.521 1.19336 139.558 1.0918C139.608 0.955078 139.697 0.844727 139.824 0.760742C139.953 0.674805 140.133 0.631836 140.363 0.631836C140.512 0.631836 140.676 0.649414 140.855 0.68457L140.776 1.14453C140.667 1.125 140.563 1.11523 140.466 1.11523C140.306 1.11523 140.192 1.14941 140.126 1.21777C140.06 1.28613 140.026 1.41406 140.026 1.60156V1.88867H140.633V2.29883H140.026V5H139.502ZM142.59 5V3.97168H140.727V3.48828L142.687 0.705078H143.117V3.48828H143.697V3.97168H143.117V5H142.59ZM142.59 3.48828V1.55176L141.245 3.48828H142.59ZM144.512 5V2.29883H144.046V1.88867H144.512V1.55762C144.512 1.34863 144.53 1.19336 144.567 1.0918C144.618 0.955078 144.707 0.844727 144.834 0.760742C144.963 0.674805 145.143 0.631836 145.373 0.631836C145.521 0.631836 145.686 0.649414 145.865 0.68457L145.786 1.14453C145.677 1.125 145.573 1.11523 145.476 1.11523C145.315 1.11523 145.202 1.14941 145.136 1.21777C145.069 1.28613 145.036 1.41406 145.036 1.60156V1.88867H145.643V2.29883H145.036V5H144.512ZM145.988 4.00684L146.495 3.95996C146.538 4.19824 146.62 4.37109 146.741 4.47852C146.862 4.58594 147.018 4.63965 147.207 4.63965C147.369 4.63965 147.511 4.60254 147.632 4.52832C147.755 4.4541 147.855 4.35547 147.934 4.23242C148.012 4.10742 148.077 3.93945 148.13 3.72852C148.183 3.51758 148.209 3.30273 148.209 3.08398C148.209 3.06055 148.208 3.02539 148.206 2.97852C148.101 3.14648 147.956 3.2832 147.772 3.38867C147.591 3.49219 147.394 3.54395 147.181 3.54395C146.825 3.54395 146.524 3.41504 146.278 3.15723C146.032 2.89941 145.909 2.55957 145.909 2.1377C145.909 1.70215 146.037 1.35156 146.293 1.08594C146.551 0.820312 146.873 0.6875 147.26 0.6875C147.539 0.6875 147.794 0.762695 148.024 0.913086C148.257 1.06348 148.433 1.27832 148.552 1.55762C148.673 1.83496 148.733 2.2373 148.733 2.76465C148.733 3.31348 148.674 3.75098 148.555 4.07715C148.436 4.40137 148.258 4.64844 148.021 4.81836C147.787 4.98828 147.512 5.07324 147.195 5.07324C146.859 5.07324 146.585 4.98047 146.372 4.79492C146.159 4.60742 146.031 4.34473 145.988 4.00684ZM148.147 2.11133C148.147 1.80859 148.066 1.56836 147.904 1.39062C147.744 1.21289 147.551 1.12402 147.324 1.12402C147.09 1.12402 146.886 1.21973 146.712 1.41113C146.538 1.60254 146.451 1.85059 146.451 2.15527C146.451 2.42871 146.533 2.65137 146.697 2.82324C146.863 2.99316 147.067 3.07812 147.31 3.07812C147.554 3.07812 147.754 2.99316 147.91 2.82324C148.068 2.65137 148.147 2.41406 148.147 2.11133Z" fill="black"/>
</svg>
